<svg xmlns="http://www.w3.org/2000/svg" viewBox="0 0 215.9 279.4">
  <g xmlns="http://www.w3.org/2000/svg" fill="#f30000" stroke="#000">
    <g stroke-width=".5" filter="url(#filter3020-9)">
      <path xmlns:inkscape="http://www.inkscape.org/namespaces/inkscape" stroke-width=".12" d="m8.05 7.92 1.71 2.7 2.54.27-2.1.11.5.9s1.42.1 4.48.19v3.3a169.2 169.2 0 0 1-3.53-.23l.32.95 1.33.14-1.16.12.26.65c7.85.64 20.14.64 28 0l.25-.65-1.15-.12 1.32-.14.33-.95c-1.21.09-2.4.16-3.53.23v-3.3c3.06-.1 4.47-.18 4.47-.18l.5-.9-2.1-.12 2.54-.27 1.72-2.7c-6.78 1.58-30.27 1.5-36.7 0zm9.18 4.23c3.93.1 7.86.04 7.86.04v3.5s-3.32 0-7.86-.2zm18.33 0v3.34c-4.53.2-7.86.2-7.86.2v-3.5s3.93.05 7.86-.04z"/>
    </g>
    <g xmlns:inkscape="http://www.inkscape.org/namespaces/inkscape" stroke-width=".39" filter="url(#filter3020-9)" transform="matrix(.35872 0 0 .41229 38.7 -36.18)">
      <path d="M48.4 121.49h23.62v-4.11H48.4Zm0-8.22h23.62v-4.1H48.4Zm0 16.44h23.62v-4.11H48.4Zm56.07-4.11v4.11h24.64v-4.11h-20.53zm0-8.22v4.11h24.64v-4.11h-20.53zm0-8.2v4.09h24.64v-4.1zm27.66-.01v20.54h16.43c2.27 0 4.2-.8 5.81-2.42a7.91 7.91 0 0 0 2.4-5.8v-4.11c0-2.26-.8-4.2-2.4-5.8a7.95 7.95 0 0 0-5.8-2.4zm4.11 4.1h12.32c1.14 0 2.1.4 2.9 1.21.8.8 1.2 1.77 1.2 2.9v4.1c0 1.14-.4 2.1-1.2 2.91-.8.8-1.76 1.2-2.9 1.2h-12.32zm23.55-4.1v12.32c0 2.27.8 4.2 2.41 5.8a7.88 7.88 0 0 0 5.8 2.42h16.43v-12.33c0-2.26-.8-4.2-2.4-5.8a7.95 7.95 0 0 0-5.8-2.4zm4.11 4.1h12.32c1.14 0 2.1.4 2.9 1.21.8.8 1.2 1.77 1.2 2.9v8.22H168c-1.12 0-2.09-.4-2.9-1.2a4 4 0 0 1-1.2-2.91z"/>
      <path d="m88.48 120.89-7.78 8.82H75v-20.54h4.1v16.14l9.38-10.63 9.37 10.63v-16.13h4.11v20.53h-5.7zm79.76-1.45 3.87-1.73 3.87 1.73-3.87 1.74zm-126.4-3.13v7.7l-15.46-14.84h-4.1v20.54h4.1v-14.84l15.47 14.84h4.1v-13.4a7.9 7.9 0 0 0-2.39-5.8 8.44 8.44 0 0 0-1.71-1.34z"/>
    </g>
  </g>
</svg>